name rise43.5482peak65.4966fall89.1036.mot
datacolumns 19
datarows 26
range 3.46498100000000 3.50665100000000
endheader
time	ground_force1_vx	ground_force1_vy	ground_force1_vz	ground_force1_px	ground_force1_py	ground_force1_pz	ground_force2_vx	ground_force2_vy	ground_force2_vz	ground_force2_px	ground_force2_py	ground_force2_pz	ground_torque1_x	ground_torque1_y	ground_torque1_z	ground_torque2_x	ground_torque2_y	ground_torque2_z	
3.46498100000000	-44.55608400000000	823.07858599999997	55.50940500000000	0.07763200000000	0.00000000000000	0.13046900000000	-4.76222800000000	38.57044100000000	5.90869700000000	0.31463600000000	0.00000000000000	-0.06707300000000	0.00000000000000	19.86323100000000	0.00000000000000	0.00000000000000	3.25564400000000	0.00000000000000	
3.46665200000000	-45.40901400000000	822.47535600000003	55.60618200000000	0.07667800000000	0.00000000000000	0.13041300000000	-5.36817700000000	44.69625500000000	6.70769400000000	0.31765200000000	0.00000000000000	-0.06731100000000	0.00000000000000	19.90062400000000	0.00000000000000	0.00000000000000	3.72353900000000	0.00000000000000	
3.46831600000000	-46.28146800000000	821.74327200000005	55.68406000000000	0.07572400000000	0.00000000000000	0.13035500000000	-5.92038400000000	50.76143700000000	7.45674300000000	0.32037500000000	0.00000000000000	-0.06754600000000	0.00000000000000	19.94127200000000	0.00000000000000	0.00000000000000	4.16872800000000	0.00000000000000	
3.46997900000000	-47.17318500000000	820.87871600000005	55.74220100000000	0.07477200000000	0.00000000000000	0.13029500000000	-6.40493500000000	56.67566700000000	8.14035900000000	0.32284300000000	0.00000000000000	-0.06777700000000	0.00000000000000	19.98524100000000	0.00000000000000	0.00000000000000	4.58202600000000	0.00000000000000	
3.47164800000000	-48.08382000000000	819.87810100000002	55.77979600000000	0.07382000000000	0.00000000000000	0.13023300000000	-6.81193000000000	62.37349900000000	8.74780500000000	0.32508700000000	0.00000000000000	-0.06800600000000	0.00000000000000	20.03258100000000	0.00000000000000	0.00000000000000	4.95685600000000	0.00000000000000	
3.47332000000000	-49.01294300000000	818.73786700000005	55.79606600000000	0.07286900000000	0.00000000000000	0.13017000000000	-7.13560200000000	67.81593500000000	9.27322100000000	0.32713200000000	0.00000000000000	-0.06823100000000	0.00000000000000	20.08332100000000	0.00000000000000	0.00000000000000	5.28938500000000	0.00000000000000	
3.47497800000000	-49.96003700000000	817.45449399999995	55.79026500000000	0.07191800000000	0.00000000000000	0.13010400000000	-7.37407300000000	72.98956099999999	9.71532800000000	0.32900200000000	0.00000000000000	-0.06845500000000	0.00000000000000	20.13747600000000	0.00000000000000	0.00000000000000	5.57839800000000	0.00000000000000	
3.47665400000000	-50.92449200000000	816.02450499999998	55.76168400000000	0.07096700000000	0.00000000000000	0.13003700000000	-7.52884500000000	77.90373900000000	10.07681000000000	0.33071600000000	0.00000000000000	-0.06867700000000	0.00000000000000	20.19503700000000	0.00000000000000	0.00000000000000	5.82497800000000	0.00000000000000	
3.47831200000000	-51.90561100000000	814.44447000000002	55.70965100000000	0.07001700000000	0.00000000000000	0.12996700000000	-7.60409900000000	82.58640400000000	10.36347200000000	0.33228800000000	0.00000000000000	-0.06889700000000	0.00000000000000	20.25597900000000	0.00000000000000	0.00000000000000	6.03205300000000	0.00000000000000	
3.47998100000000	-52.90260500000000	812.71101499999997	55.63353700000000	0.06906700000000	0.00000000000000	0.12989600000000	-7.60590400000000	87.07907700000000	10.58328500000000	0.33373400000000	0.00000000000000	-0.06911600000000	0.00000000000000	20.32025300000000	0.00000000000000	0.00000000000000	6.20386900000000	0.00000000000000	
3.48165100000000	-53.91459200000000	810.82082700000001	55.53275500000000	0.06811700000000	0.00000000000000	0.12982200000000	-7.54141500000000	91.43162599999999	10.74542400000000	0.33506600000000	0.00000000000000	-0.06933400000000	0.00000000000000	20.38779000000000	0.00000000000000	0.00000000000000	6.34543800000000	0.00000000000000	
3.48331400000000	-54.94059900000000	808.77066100000002	55.40676400000000	0.06716600000000	0.00000000000000	0.12974700000000	-7.41812100000000	95.69726300000001	10.85936800000000	0.33629300000000	0.00000000000000	-0.06955100000000	0.00000000000000	20.45850100000000	0.00000000000000	0.00000000000000	6.46202900000000	0.00000000000000	
3.48497800000000	-55.97955900000000	806.55734700000005	55.25507300000000	0.06621600000000	0.00000000000000	0.12966900000000	-7.24320500000000	99.92811600000000	10.93413300000000	0.33742500000000	0.00000000000000	-0.06976700000000	0.00000000000000	20.53227100000000	0.00000000000000	0.00000000000000	6.55871500000000	0.00000000000000	
3.48665200000000	-57.03031400000000	804.17780000000005	55.07724000000000	0.06526600000000	0.00000000000000	0.12958900000000	-7.02304100000000	104.17165100000000	10.97766500000000	0.33846900000000	0.00000000000000	-0.06998300000000	0.00000000000000	20.60896500000000	0.00000000000000	0.00000000000000	6.64001800000000	0.00000000000000	
3.48831600000000	-58.09161300000000	801.62902299999996	54.87287300000000	0.06431500000000	0.00000000000000	0.12950700000000	-6.76284100000000	108.46804299999999	10.99642500000000	0.33943300000000	0.00000000000000	-0.07019800000000	0.00000000000000	20.68842500000000	0.00000000000000	0.00000000000000	6.70966000000000	0.00000000000000	
3.48998600000000	-59.16211600000000	798.90811699999995	54.64163700000000	0.06336400000000	0.00000000000000	0.12942400000000	-6.46646200000000	112.84855500000000	10.99515400000000	0.34032100000000	0.00000000000000	-0.07041300000000	0.00000000000000	20.77046900000000	0.00000000000000	0.00000000000000	6.77040800000000	0.00000000000000	
3.49164800000000	-60.24039000000000	796.01229200000000	54.38325100000000	0.06241200000000	0.00000000000000	0.12933800000000	-6.13634900000000	117.33485200000000	10.97680700000000	0.34114000000000	0.00000000000000	-0.07062800000000	0.00000000000000	20.85489200000000	0.00000000000000	0.00000000000000	6.82403000000000	0.00000000000000	
3.49331300000000	-61.32491600000000	792.93886799999996	54.09749000000000	0.06146000000000	0.00000000000000	0.12924900000000	-5.77359800000000	121.93914400000000	10.94263400000000	0.34189400000000	0.00000000000000	-0.07084300000000	0.00000000000000	20.94146600000000	0.00000000000000	0.00000000000000	6.87132600000000	0.00000000000000	
3.49498300000000	-62.41408700000000	789.68528900000001	53.78418800000000	0.06050700000000	0.00000000000000	0.12915900000000	-5.37811900000000	126.66498100000000	10.89237100000000	0.34258500000000	0.00000000000000	-0.07105800000000	0.00000000000000	21.02993900000000	0.00000000000000	0.00000000000000	6.91222900000000	0.00000000000000	
3.49664600000000	-63.50621100000000	786.24912900000004	53.44323700000000	0.05955200000000	0.00000000000000	0.12906700000000	-4.94885400000000	131.50854400000000	10.82450800000000	0.34321800000000	0.00000000000000	-0.07127300000000	0.00000000000000	21.12003800000000	0.00000000000000	0.00000000000000	6.94595300000000	0.00000000000000	
3.49831800000000	-64.59951599999999	782.62810000000002	53.07459000000000	0.05859700000000	0.00000000000000	0.12897300000000	-4.48404200000000	136.46021600000000	10.73660200000000	0.34379500000000	0.00000000000000	-0.07148800000000	0.00000000000000	21.21146500000000	0.00000000000000	0.00000000000000	6.97116400000000	0.00000000000000	
3.49998300000000	-65.69214800000000	778.82005800000002	52.67826000000000	0.05764000000000	0.00000000000000	0.12887700000000	-3.98148000000000	141.50629599999999	10.62560200000000	0.34431800000000	0.00000000000000	-0.07170400000000	0.00000000000000	21.30390100000000	0.00000000000000	0.00000000000000	6.98616500000000	0.00000000000000	
3.50165300000000	-66.78217700000000	774.82301500000005	52.25432100000000	0.05668100000000	0.00000000000000	0.12877800000000	-3.43879200000000	146.63067200000000	10.48815800000000	0.34479000000000	0.00000000000000	-0.07192000000000	0.00000000000000	21.39700600000000	0.00000000000000	0.00000000000000	6.98907600000000	0.00000000000000	
3.50331300000000	-67.86760000000000	770.63514499999997	51.80290900000000	0.05572100000000	0.00000000000000	0.12867800000000	-2.85365000000000	151.81636200000000	10.32090000000000	0.34521200000000	0.00000000000000	-0.07213700000000	0.00000000000000	21.49041700000000	0.00000000000000	0.00000000000000	6.97798700000000	0.00000000000000	
3.50498600000000	-68.94634400000000	766.25479099999995	51.32421800000000	0.05475800000000	0.00000000000000	0.12857600000000	-2.22396800000000	157.04682399999999	10.12067000000000	0.34558500000000	0.00000000000000	-0.07235400000000	0.00000000000000	21.58375300000000	0.00000000000000	0.00000000000000	6.95109500000000	0.00000000000000	
3.50665100000000	-70.01627400000000	761.68047600000000	50.81850900000000	0.05379300000000	0.00000000000000	0.12847300000000	-1.54804500000000	162.30698500000000	9.88469000000000	0.34591000000000	0.00000000000000	-0.07257100000000	0.00000000000000	21.67661100000000	0.00000000000000	0.00000000000000	6.90680700000000	0.00000000000000	
